<!-- Generated by IcoMoon.io -->
<svg version="1.1" xmlns="http://www.w3.org/2000/svg" width="384" height="448" fill="#c0301c" viewBox="0 0 384 448">
<title></title>
<g id="icomoon-ignore">
</g>
<path d="M375 387.25c0 29.75-24 54-54 54s-54.25-24.25-54.25-54c0-30 24.25-54.25 54.25-54.25s54 24.25 54 54.25zM316.75 317c-38 5-67.5 37.5-67.5 77 0 12.25 3 24.25 8.25 34.5-22.5 12-53 19.5-94.75 19.5-133 0-153.75-94-153.75-106.5 0-12.75 7.5-54.5 54.5-54.5s53.5 40.25 53.5 48.5c0 0 0 8.5-5.75 20.25 16 15 53.75 15 53.75 15 37.75 0 66.25-18.5 66.25-46 0-27.75-32-41.25-105-75.5-73-34.5-100.5-59.75-100.5-122.5 0-63 42-126.75 146.75-126.75s144.25 58.75 144.25 99-34.25 50.25-47 50.25c-12.5 0-58.75 4.25-58.75-65.25-8.25-9.25-44.25-9.25-44.25-9.25-36.25 0-52.25 27.5-52.25 44.25 0 17 6.75 38 82.25 63 115.75 38.5 120 88.75 120 135z"></path>
</svg>
